PathFileType	4	(X/Y/Z)
DataRate	CameraRate	NumFrames	NumMarkers	Units	OrigDataRate	OrigDataStartFrame	OrigNumFrames	
	120.0	120.0	6	39	mm	120.0	203	231
Frame#	Time	midhip	hip_r	hip_l	knee_r	knee_l	ankle_r	ankle_l	midasis	asis_r	asis_l	psis_r	psis_l	epicondLat_r	epicondLat_l	epicondMed_r	epicondMed_l	malleolusLat_r	malleolusLat_l	malleolusMedv_r	malleolusMedv_l	heel_r	heel_l	sternalnotch	xyphoidprocess	neck	subclavicle_r	subclavicle_l	toe_r	toe_l	thighwand_r	thighwand_l	upperleg1_r	upperleg1_l	upperleg2_r	upperleg2_l	shankwand_r	shankwand_l	lowerleg1_r	lowerleg1_l
	X1	Y1	Z1	X2	Y2	Z2	X3	Y3	Z3	X4	Y4	Z4	X5	Y5	Z5	X6	Y6	Z6	X7	Y7	Z7	X8	Y8	Z8	X9	Y9	Z9	X10	Y10	Z10	X11	Y11	Z11	X12	Y12	Z12	X13	Y13	Z13	X14	Y14	Z14	X15	Y15	Z15	X16	Y16	Z16	X17	Y17	Z17	X18	Y18	Z18	X19	Y19	Z19	X20	Y20	Z20	X21	Y21	Z21	X22	Y22	Z22	X23	Y23	Z23	X24	Y24	Z24	X25	Y25	Z25	X26	Y26	Z26	X27	Y27	Z27	X28	Y28	Z28	X29	Y29	Z29	X30	Y30	Z30	X31	Y31	Z31	X32	Y32	Z32	X33	Y33	Z33	X34	Y34	Z34	X35	Y35	Z35	X36	Y36	Z36	X37	Y37	Z37	X38	Y38	Z38	X39	Y39	Z39

	203	1.69167	1453.927	834.948	-244.239	1467.570	836.755	-187.138	1440.284	833.141	-301.340	1443.760	460.607	-169.303	1433.257	464.934	-340.698	1420.137	63.602	-171.821	1415.780	65.838	-357.304	1526.139	902.770	-257.509	1541.117	906.298	-157.974	1511.162	899.242	-357.044	1382.156	958.760	-216.505	1375.325	958.410	-270.977	1457.654	462.249	-116.112	1437.675	470.625	-394.720	1428.500	454.961	-218.179	1427.790	451.982	-287.298	1409.885	63.977	-134.713	1408.748	67.719	-395.110	1442.585	77.891	-198.971	1438.503	76.607	-334.656	1373.287	42.817	-167.100	1369.348	48.395	-344.773	1498.594	1300.486	-269.794	1575.149	1143.001	-263.323	1412.962	1346.789	-257.210	1517.532	1295.136	-210.619	1510.792	1288.178	-319.304	1533.450	41.032	-125.195	1531.599	38.887	-408.716	1592.043	623.352	-198.065	1571.871	624.758	-322.913	1526.549	679.416	-144.315	1499.735	673.963	-373.856	1514.067	595.347	-138.437	1496.239	586.087	-372.802	1409.618	185.905	-62.146	1361.003	186.746	-444.419	1414.965	192.773	-103.499	1381.038	191.068	-406.240
	204	1.70000	1454.082	834.947	-244.233	1467.652	836.792	-187.116	1440.512	833.102	-301.350	1444.367	460.651	-169.503	1432.807	464.871	-340.977	1420.234	63.594	-171.864	1415.547	65.845	-357.417	1526.194	902.888	-257.433	1541.047	906.468	-157.865	1511.342	899.308	-357.001	1382.082	958.654	-216.619	1375.322	958.244	-271.097	1458.139	462.291	-116.280	1437.507	470.583	-394.972	1428.819	455.355	-218.489	1427.535	451.827	-287.622	1409.893	64.002	-134.781	1408.715	67.699	-395.261	1442.519	77.706	-199.013	1438.488	76.624	-334.802	1373.373	42.822	-167.166	1369.272	48.430	-344.856	1498.549	1300.489	-269.824	1574.679	1142.794	-263.448	1413.108	1346.958	-257.190	1517.354	1294.998	-210.594	1510.813	1288.225	-319.353	1533.473	41.018	-125.153	1531.587	38.860	-408.761	1592.315	623.843	-198.290	1571.711	624.426	-322.600	1526.844	679.733	-144.350	1499.846	673.805	-373.828	1514.411	595.642	-138.606	1496.353	585.968	-372.802	1409.594	185.951	-62.287	1360.981	186.653	-444.670	1415.052	192.826	-103.634	1380.960	190.978	-406.598
	205	1.70833	1454.575	834.961	-244.518	1467.905	836.775	-187.344	1441.245	833.146	-301.693	1445.123	460.667	-169.705	1432.260	464.855	-341.268	1420.384	63.568	-171.900	1415.264	65.825	-357.540	1526.525	903.147	-257.335	1540.955	906.644	-157.723	1512.094	899.650	-356.946	1382.017	958.534	-216.757	1375.321	958.059	-271.250	1458.712	462.342	-116.437	1437.292	470.532	-395.237	1429.351	455.788	-219.110	1426.905	451.666	-288.158	1409.911	64.015	-134.855	1408.671	67.651	-395.427	1442.551	77.586	-199.067	1438.482	76.641	-334.969	1373.456	42.827	-167.234	1369.191	48.450	-344.957	1498.571	1300.511	-269.910	1574.540	1142.734	-263.643	1413.126	1347.095	-257.182	1517.380	1294.964	-210.689	1510.815	1288.265	-319.446	1533.501	40.999	-125.104	1531.560	38.840	-408.820	1592.684	624.373	-198.320	1571.460	624.009	-322.178	1527.108	680.118	-144.317	1500.024	673.591	-373.818	1514.726	595.903	-138.785	1496.421	585.758	-372.848	1409.567	185.986	-62.441	1360.843	186.554	-444.931	1415.105	192.869	-103.795	1380.873	190.874	-406.992
	206	1.71667	1455.262	834.986	-244.979	1468.249	836.726	-187.723	1442.275	833.246	-302.235	1446.024	460.668	-169.905	1431.641	464.871	-341.550	1420.600	63.527	-171.920	1414.945	65.779	-357.667	1527.015	903.484	-257.223	1540.841	906.816	-157.560	1513.189	900.152	-356.887	1381.956	958.412	-216.927	1375.322	957.870	-271.440	1459.352	462.408	-116.572	1437.032	470.472	-395.492	1430.177	456.085	-219.852	1425.909	451.485	-288.778	1409.938	64.022	-134.929	1408.612	67.576	-395.600	1442.776	77.610	-199.111	1438.455	76.674	-335.143	1373.527	42.836	-167.302	1369.098	48.448	-345.067	1498.590	1300.538	-269.989	1574.443	1142.700	-263.850	1413.153	1347.212	-257.148	1517.483	1294.970	-210.825	1510.750	1288.288	-319.519	1533.533	40.976	-125.049	1531.524	38.825	-408.888	1593.159	624.933	-198.116	1571.123	623.526	-321.661	1527.297	680.468	-144.167	1500.212	673.297	-373.765	1515.030	596.071	-138.885	1496.376	585.432	-372.877	1409.549	186.013	-62.603	1360.622	186.454	-445.204	1415.180	192.877	-103.959	1380.780	190.778	-407.340
	207	1.72500	1456.092	835.028	-245.575	1468.658	836.660	-188.222	1443.527	833.396	-302.928	1447.051	460.653	-170.097	1430.989	464.918	-341.804	1420.888	63.478	-171.916	1414.607	65.711	-357.791	1527.625	903.880	-257.104	1540.711	906.983	-157.386	1514.540	900.777	-356.823	1381.891	958.296	-217.129	1375.322	957.690	-271.667	1460.033	462.481	-116.683	1436.738	470.411	-395.721	1430.642	456.813	-221.527	1424.793	451.279	-289.301	1409.978	64.028	-134.998	1408.535	67.481	-395.768	1442.997	77.621	-199.148	1438.395	76.705	-335.316	1373.591	42.850	-167.368	1368.992	48.430	-345.183	1498.557	1300.542	-270.012	1574.218	1142.606	-264.033	1413.216	1347.299	-257.104	1517.498	1294.916	-210.886	1510.655	1288.305	-319.543	1533.566	40.950	-124.989	1531.489	38.808	-408.962	1593.738	625.506	-197.672	1570.718	623.007	-321.074	1527.514	680.763	-143.778	1500.317	672.954	-373.606	1515.073	596.031	-139.095	1496.218	585.069	-372.814	1409.559	186.034	-62.762	1360.355	186.361	-445.487	1415.335	192.856	-104.123	1380.681	190.708	-407.621
	208	1.73333	1456.905	835.080	-246.178	1469.034	836.599	-188.728	1444.775	833.561	-303.628	1448.185	460.629	-170.272	1430.337	464.978	-342.025	1421.238	63.430	-171.882	1414.261	65.632	-357.908	1528.223	904.273	-256.972	1540.543	907.140	-157.190	1515.902	901.406	-356.754	1381.815	958.192	-217.360	1375.311	957.528	-271.918	1460.751	462.559	-116.762	1436.420	470.354	-395.917	1430.826	457.897	-223.666	1423.582	451.127	-289.707	1410.034	64.041	-135.054	1408.434	67.379	-395.925	1443.043	77.466	-199.181	1438.309	76.716	-335.484	1373.649	42.870	-167.427	1368.870	48.401	-345.300	1498.531	1300.528	-270.028	1574.005	1142.498	-264.179	1413.242	1347.378	-257.096	1517.478	1294.837	-210.921	1510.604	1288.313	-319.559	1533.599	40.925	-124.923	1531.453	38.788	-409.039	1594.410	626.080	-197.012	1570.271	622.488	-320.446	1527.836	681.049	-143.180	1500.351	672.635	-373.398	1514.987	595.883	-139.307	1495.961	584.709	-372.686	1409.620	186.056	-62.908	1360.083	186.282	-445.782	1415.553	192.810	-104.288	1380.586	190.657	-407.874
